<svg xmlns="http://www.w3.org/2000/svg" width="70" height="39.057" viewBox="0 0 70 39.057">
  <path id="Icon_simple-deezer" data-name="Icon simple-deezer" d="M42.925,47.013h12.76V43.149H42.919v3.865Zm-28.613,0H27.067V43.149H14.309v3.865h.012ZM0,47.013H12.76V43.149H0v3.865Zm28.613,0H41.388V43.149H28.613Zm28.627,0H70V43.149H57.24Zm0-5.028H70v-3.85H57.24v3.879Zm-28.624,0h12.8v-3.85H28.613v3.879ZM0,41.985H12.778v-3.85H0v3.879Zm14.321,0H27.1v-3.85H14.321v3.908l.006-.029Zm28.671,0H55.77v-3.85H42.936v3.908l.05-.029Zm0-5.017H55.77v-3.85H42.936V37h.05Zm-28.6,0H27.113v-3.85H14.321V37h.047Zm-14.309,0H12.8v-3.85H0V37H.047Zm28.613,0H41.475v-3.85H28.642V37h.047Zm28.656,0H70v-3.85H57.24V37h.079Zm0-5.017H70V28.069H57.24v3.868h.079Zm-28.613,0H41.469V28.069H28.636v3.868h.1Zm-28.613,0h12.7V28.069H0v3.868H.088Zm42.963,0H55.869V28.069H42.948v3.868h.128Zm0-5.017H55.869V23.056H42.948v3.85h.128Zm-42.963,0h12.7v-3.85H0v3.85H.088Zm28.613,0H41.519v-3.85H28.613v3.85h.093Zm28.613,0H70V23.056H57.24v3.873l.079-.006ZM28.613,21.886H41.388V18.018H28.613ZM57.24,21.88H70V18.016H57.24V21.88ZM28.613,16.855H41.388v-3.87H28.613v3.87Zm28.627,0H70v-3.87H57.24v3.87Zm0-5.031H70V7.956H57.24Z" transform="translate(0 -7.956)" fill="#fafafa"/>
</svg>
