<svg xmlns="http://www.w3.org/2000/svg" width="57.013" height="57" viewBox="0 0 57.013 57">
  <path id="Icon_awesome-instagram" data-name="Icon awesome-instagram" d="M28.507,16.124A14.614,14.614,0,1,0,43.122,30.738,14.591,14.591,0,0,0,28.507,16.124Zm0,24.115a9.5,9.5,0,1,1,9.5-9.5,9.518,9.518,0,0,1-9.5,9.5ZM47.128,15.526a3.409,3.409,0,1,1-3.409-3.409A3.4,3.4,0,0,1,47.128,15.526Zm9.679,3.46c-.216-4.566-1.259-8.611-4.6-11.943s-7.377-4.375-11.943-4.6c-4.706-.267-18.811-.267-23.517,0C12.189,2.654,8.144,3.7,4.8,7.03S.424,14.407.2,18.973C-.072,23.679-.072,37.784.2,42.49.411,47.056,1.454,51.1,4.8,54.433s7.377,4.375,11.943,4.6c4.706.267,18.811.267,23.517,0,4.566-.216,8.611-1.259,11.943-4.6s4.375-7.377,4.6-11.943c.267-4.706.267-18.8,0-23.5Zm-6.08,28.554a9.619,9.619,0,0,1-5.418,5.418c-3.752,1.488-12.655,1.145-16.8,1.145s-13.062.331-16.8-1.145a9.619,9.619,0,0,1-5.418-5.418C4.8,43.787,5.143,34.884,5.143,30.738s-.331-13.062,1.145-16.8a9.619,9.619,0,0,1,5.418-5.418c3.752-1.488,12.655-1.145,16.8-1.145s13.062-.331,16.8,1.145a9.619,9.619,0,0,1,5.418,5.418c1.488,3.752,1.145,12.655,1.145,16.8S52.216,43.8,50.727,47.539Z" transform="translate(0.005 -2.238)" fill="#fafafa"/>
</svg>
