<svg xmlns="http://www.w3.org/2000/svg" width="57" height="57" viewBox="0 0 57 57">
  <path id="Icon_zocial-itunes" data-name="Icon zocial-itunes" d="M0,28.5A27.918,27.918,0,0,1,3.819,14.193,28.3,28.3,0,0,1,14.193,3.819,27.918,27.918,0,0,1,28.5,0,27.918,27.918,0,0,1,42.807,3.819,28.3,28.3,0,0,1,53.181,14.193,27.919,27.919,0,0,1,57,28.5a27.918,27.918,0,0,1-3.819,14.307A28.3,28.3,0,0,1,42.807,53.181,27.918,27.918,0,0,1,28.5,57a27.919,27.919,0,0,1-14.307-3.819A28.3,28.3,0,0,1,3.819,42.807,27.918,27.918,0,0,1,0,28.5Zm5.7,0a21.974,21.974,0,0,0,6.669,16.131A21.974,21.974,0,0,0,28.5,51.3a21.974,21.974,0,0,0,16.131-6.669A21.974,21.974,0,0,0,51.3,28.5a21.974,21.974,0,0,0-6.669-16.131A21.974,21.974,0,0,0,28.5,5.7a21.974,21.974,0,0,0-16.131,6.669A21.974,21.974,0,0,0,5.7,28.5ZM16.131,38.532a4.185,4.185,0,0,0,4.218,4.218,4.672,4.672,0,0,0,4.617-4.617V22.8l11.4-2.109V32.547a5.065,5.065,0,0,0-1.6-.285,4.672,4.672,0,0,0-4.617,4.617,4.121,4.121,0,0,0,1.2,2.992A3.978,3.978,0,0,0,34.314,41.1a4.5,4.5,0,0,0,3.163-1.311,4.294,4.294,0,0,0,1.453-3.078V14.25L22.4,17.1V34.2a5.065,5.065,0,0,0-1.6-.285A4.5,4.5,0,0,0,17.5,35.283a4.439,4.439,0,0,0-1.368,3.249Z" fill="#fafafa"/>
</svg>
