<svg xmlns="http://www.w3.org/2000/svg" width="57" height="57" viewBox="0 0 57 57">
  <path id="Icon_awesome-spotify" data-name="Icon awesome-spotify" d="M28.5.563A28.5,28.5,0,1,0,57,29.063,28.51,28.51,0,0,0,28.5.563ZM40.072,42.5a2.193,2.193,0,0,1-1.23-.414c-7.171-4.321-15.514-4.5-23.754-2.816a7.421,7.421,0,0,1-1.368.3,1.789,1.789,0,0,1-1.816-1.816,1.821,1.821,0,0,1,1.563-1.931c9.412-2.08,19.031-1.9,27.236,3.011a1.943,1.943,0,0,1,1.115,1.9,1.736,1.736,0,0,1-1.747,1.77Zm3.091-7.539a2.838,2.838,0,0,1-1.414-.483c-7.182-4.252-17.893-5.964-27.42-3.379a4.733,4.733,0,0,1-1.368.3,2.232,2.232,0,0,1-2.229-2.229,2.261,2.261,0,0,1,1.781-2.379,38.654,38.654,0,0,1,11.239-1.563,40.228,40.228,0,0,1,20.341,5.229,2.4,2.4,0,0,1,1.3,2.264,2.227,2.227,0,0,1-2.229,2.241ZM46.726,26.2a2.643,2.643,0,0,1-1.482-.448C37.061,20.869,22.432,19.7,12.963,22.34a5.458,5.458,0,0,1-1.482.3A2.652,2.652,0,0,1,8.8,19.926a2.715,2.715,0,0,1,2-2.747,48.164,48.164,0,0,1,13.5-1.747c8.389,0,17.18,1.747,23.6,5.493a2.7,2.7,0,0,1,1.482,2.6A2.663,2.663,0,0,1,46.726,26.2Z" transform="translate(0 -0.563)" fill="#fafafa"/>
</svg>
