<svg xmlns="http://www.w3.org/2000/svg" width="70.181" height="57" viewBox="0 0 70.181 57">
  <path id="Icon_awesome-twitter" data-name="Icon awesome-twitter" d="M62.967,17.586c.045.623.045,1.247.045,1.87,0,19.015-14.473,40.924-40.924,40.924A40.647,40.647,0,0,1,0,53.924a29.755,29.755,0,0,0,3.473.178A28.806,28.806,0,0,0,21.33,47.957,14.409,14.409,0,0,1,7.882,37.982,18.139,18.139,0,0,0,10.6,38.2a15.213,15.213,0,0,0,3.785-.49A14.386,14.386,0,0,1,2.85,23.6V23.42a14.486,14.486,0,0,0,6.5,1.826A14.405,14.405,0,0,1,4.9,6.008,40.885,40.885,0,0,0,34.556,21.06a16.238,16.238,0,0,1-.356-3.3A14.4,14.4,0,0,1,59.093,7.923,28.319,28.319,0,0,0,68.222,4.45,14.345,14.345,0,0,1,61.9,12.376a28.835,28.835,0,0,0,8.283-2.226,30.919,30.919,0,0,1-7.214,7.437Z" transform="translate(0 -3.381)" fill="#fafafa"/>
</svg>
